<svg width="32" height="53" viewBox="0 0 32 53" fill="none" xmlns="http://www.w3.org/2000/svg">
<path d="M0 0.5H20C26.6274 0.5 32 5.87258 32 12.5V40.5C32 47.1274 26.6274 52.5 20 52.5H0V0.5Z" fill="#8A8A8A"/>
<path d="M9.83171 34.0129C10.24 34.4212 10.8984 34.4212 11.3067 34.0129L18.2317 27.0879C18.5567 26.7629 18.5567 26.2379 18.2317 25.9129L11.3067 18.9879C10.8984 18.5796 10.24 18.5796 9.83171 18.9879C9.42338 19.3962 9.42338 20.0546 9.83171 20.4629L15.865 26.5046L9.82338 32.5462C9.42338 32.9462 9.42338 33.6129 9.83171 34.0129Z" fill="#F5F5F5"/>
</svg>
