<svg width="716" height="48" viewBox="0 0 716 48" fill="none" xmlns="http://www.w3.org/2000/svg">
<path d="M0 16C0 7.16344 7.16344 0 16 0H700C708.837 0 716 7.16344 716 16V32C716 40.8366 708.837 48 700 48H16C7.16345 48 0 40.8366 0 32V16Z" fill="#121212" fill-opacity="0.7"/>
<path d="M32 31C33.1 31 34 30.1 34 29V19C34 17.9 33.1 17 32 17C30.9 17 30 17.9 30 19V29C30 30.1 30.9 31 32 31ZM38 19V29C38 30.1 38.9 31 40 31C41.1 31 42 30.1 42 29V19C42 17.9 41.1 17 40 17C38.9 17 38 17.9 38 19Z" fill="#F5F5F5"/>
<rect x="56" y="23" width="427" height="2" rx="1" fill="#F5F5F5"/>
<rect x="56" y="23" width="213" height="2" rx="1" fill="#2E7D32"/>
<g filter="url(#filter0_d_16970_8466)">
<rect x="265" y="20" width="8" height="8" rx="4" fill="#81C784" shape-rendering="crispEdges"/>
<circle cx="269" cy="24" r="2" fill="#F5F5F5"/>
</g>
<path d="M499.97 29H498.766V22.014C498.766 21.7433 498.766 21.5147 498.766 21.328C498.775 21.1413 498.785 20.9687 498.794 20.81C498.803 20.642 498.813 20.4693 498.822 20.292C498.673 20.4413 498.537 20.5673 498.416 20.67C498.295 20.7727 498.141 20.9033 497.954 21.062L496.89 21.93L496.246 21.104L498.948 19.004H499.97V29ZM510.334 23.988C510.334 24.8 510.273 25.5233 510.152 26.158C510.03 26.7927 509.834 27.334 509.564 27.782C509.302 28.2207 508.957 28.5567 508.528 28.79C508.108 29.0233 507.599 29.14 507.002 29.14C506.255 29.14 505.634 28.9347 505.14 28.524C504.654 28.1133 504.29 27.5253 504.048 26.76C503.814 25.9853 503.698 25.0613 503.698 23.988C503.698 22.9053 503.805 21.9813 504.02 21.216C504.244 20.4507 504.598 19.8673 505.084 19.466C505.569 19.0553 506.208 18.85 507.002 18.85C507.748 18.85 508.369 19.0553 508.864 19.466C509.358 19.8673 509.727 20.4507 509.97 21.216C510.212 21.9813 510.334 22.9053 510.334 23.988ZM504.93 23.988C504.93 24.9027 504.995 25.6633 505.126 26.27C505.266 26.8767 505.485 27.334 505.784 27.642C506.092 27.9407 506.498 28.09 507.002 28.09C507.506 28.09 507.907 27.9407 508.206 27.642C508.514 27.3433 508.738 26.8907 508.878 26.284C509.018 25.668 509.088 24.9027 509.088 23.988C509.088 23.0733 509.018 22.3173 508.878 21.72C508.738 21.1133 508.514 20.6607 508.206 20.362C507.907 20.054 507.506 19.9 507.002 19.9C506.498 19.9 506.092 20.054 505.784 20.362C505.485 20.6607 505.266 21.1133 505.126 21.72C504.995 22.3173 504.93 23.0733 504.93 23.988ZM512.031 28.244C512.031 27.8987 512.115 27.656 512.283 27.516C512.451 27.376 512.652 27.306 512.885 27.306C513.128 27.306 513.333 27.376 513.501 27.516C513.679 27.656 513.767 27.8987 513.767 28.244C513.767 28.58 513.679 28.8227 513.501 28.972C513.333 29.1213 513.128 29.196 512.885 29.196C512.652 29.196 512.451 29.1213 512.283 28.972C512.115 28.8227 512.031 28.58 512.031 28.244ZM512.031 22.252C512.031 21.8973 512.115 21.65 512.283 21.51C512.451 21.37 512.652 21.3 512.885 21.3C513.128 21.3 513.333 21.37 513.501 21.51C513.679 21.65 513.767 21.8973 513.767 22.252C513.767 22.588 513.679 22.8307 513.501 22.98C513.333 23.1293 513.128 23.204 512.885 23.204C512.652 23.204 512.451 23.1293 512.283 22.98C512.115 22.8307 512.031 22.588 512.031 22.252ZM522.092 23.988C522.092 24.8 522.031 25.5233 521.91 26.158C521.788 26.7927 521.592 27.334 521.322 27.782C521.06 28.2207 520.715 28.5567 520.286 28.79C519.866 29.0233 519.357 29.14 518.76 29.14C518.013 29.14 517.392 28.9347 516.898 28.524C516.412 28.1133 516.048 27.5253 515.806 26.76C515.572 25.9853 515.456 25.0613 515.456 23.988C515.456 22.9053 515.563 21.9813 515.778 21.216C516.002 20.4507 516.356 19.8673 516.842 19.466C517.327 19.0553 517.966 18.85 518.76 18.85C519.506 18.85 520.127 19.0553 520.622 19.466C521.116 19.8673 521.485 20.4507 521.728 21.216C521.97 21.9813 522.092 22.9053 522.092 23.988ZM516.688 23.988C516.688 24.9027 516.753 25.6633 516.884 26.27C517.024 26.8767 517.243 27.334 517.542 27.642C517.85 27.9407 518.256 28.09 518.76 28.09C519.264 28.09 519.665 27.9407 519.964 27.642C520.272 27.3433 520.496 26.8907 520.636 26.284C520.776 25.668 520.846 24.9027 520.846 23.988C520.846 23.0733 520.776 22.3173 520.636 21.72C520.496 21.1133 520.272 20.6607 519.964 20.362C519.665 20.054 519.264 19.9 518.76 19.9C518.256 19.9 517.85 20.054 517.542 20.362C517.243 20.6607 517.024 21.1133 516.884 21.72C516.753 22.3173 516.688 23.0733 516.688 23.988ZM530.103 23.988C530.103 24.8 530.043 25.5233 529.921 26.158C529.8 26.7927 529.604 27.334 529.333 27.782C529.072 28.2207 528.727 28.5567 528.297 28.79C527.877 29.0233 527.369 29.14 526.771 29.14C526.025 29.14 525.404 28.9347 524.909 28.524C524.424 28.1133 524.06 27.5253 523.817 26.76C523.584 25.9853 523.467 25.0613 523.467 23.988C523.467 22.9053 523.575 21.9813 523.789 21.216C524.013 20.4507 524.368 19.8673 524.853 19.466C525.339 19.0553 525.978 18.85 526.771 18.85C527.518 18.85 528.139 19.0553 528.633 19.466C529.128 19.8673 529.497 20.4507 529.739 21.216C529.982 21.9813 530.103 22.9053 530.103 23.988ZM524.699 23.988C524.699 24.9027 524.765 25.6633 524.895 26.27C525.035 26.8767 525.255 27.334 525.553 27.642C525.861 27.9407 526.267 28.09 526.771 28.09C527.275 28.09 527.677 27.9407 527.975 27.642C528.283 27.3433 528.507 26.8907 528.647 26.284C528.787 25.668 528.857 24.9027 528.857 23.988C528.857 23.0733 528.787 22.3173 528.647 21.72C528.507 21.1133 528.283 20.6607 527.975 20.362C527.677 20.054 527.275 19.9 526.771 19.9C526.267 19.9 525.861 20.054 525.553 20.362C525.255 20.6607 525.035 21.1133 524.895 21.72C524.765 22.3173 524.699 23.0733 524.699 23.988ZM535.861 19.004L532.137 29H530.933L534.657 19.004H535.861ZM543.282 29H536.674V27.978L539.292 25.332C539.796 24.828 540.221 24.38 540.566 23.988C540.911 23.596 541.173 23.2133 541.35 22.84C541.527 22.4573 541.616 22.042 541.616 21.594C541.616 21.0433 541.453 20.628 541.126 20.348C540.799 20.0587 540.375 19.914 539.852 19.914C539.367 19.914 538.937 19.998 538.564 20.166C538.2 20.334 537.827 20.5673 537.444 20.866L536.786 20.04C537.047 19.816 537.332 19.6153 537.64 19.438C537.957 19.2607 538.298 19.1207 538.662 19.018C539.035 18.9153 539.432 18.864 539.852 18.864C540.477 18.864 541.014 18.9713 541.462 19.186C541.91 19.4007 542.255 19.7087 542.498 20.11C542.75 20.502 542.876 20.9733 542.876 21.524C542.876 21.916 542.815 22.2893 542.694 22.644C542.573 22.9893 542.4 23.33 542.176 23.666C541.952 24.002 541.681 24.3427 541.364 24.688C541.047 25.0333 540.697 25.3927 540.314 25.766L538.228 27.824V27.88H543.282V29ZM550.916 21.342C550.916 21.79 550.832 22.1773 550.664 22.504C550.496 22.8307 550.253 23.0967 549.936 23.302C549.628 23.5073 549.264 23.652 548.844 23.736V23.792C549.646 23.8853 550.244 24.1373 550.636 24.548C551.028 24.9587 551.224 25.4953 551.224 26.158C551.224 26.7367 551.088 27.2547 550.818 27.712C550.547 28.16 550.127 28.51 549.558 28.762C548.998 29.014 548.274 29.14 547.388 29.14C546.865 29.14 546.38 29.098 545.932 29.014C545.484 28.9393 545.054 28.7993 544.644 28.594V27.446C545.064 27.6513 545.516 27.8147 546.002 27.936C546.487 28.048 546.954 28.104 547.402 28.104C548.298 28.104 548.942 27.9313 549.334 27.586C549.735 27.2313 549.936 26.746 549.936 26.13C549.936 25.71 549.824 25.374 549.6 25.122C549.385 24.8607 549.068 24.6693 548.648 24.548C548.228 24.4267 547.724 24.366 547.136 24.366H546.17V23.316H547.15C547.7 23.316 548.158 23.2367 548.522 23.078C548.895 22.9193 549.175 22.7 549.362 22.42C549.558 22.1307 549.656 21.7993 549.656 21.426C549.656 20.9407 549.492 20.5673 549.166 20.306C548.839 20.0353 548.396 19.9 547.836 19.9C547.481 19.9 547.159 19.9373 546.87 20.012C546.58 20.0773 546.31 20.1753 546.058 20.306C545.815 20.4273 545.568 20.572 545.316 20.74L544.7 19.9C544.942 19.7133 545.218 19.5407 545.526 19.382C545.843 19.2233 546.193 19.0973 546.576 19.004C546.958 18.9107 547.374 18.864 547.822 18.864C548.867 18.864 549.642 19.0973 550.146 19.564C550.659 20.0307 550.916 20.6233 550.916 21.342ZM553.033 28.244C553.033 27.8987 553.117 27.656 553.285 27.516C553.453 27.376 553.654 27.306 553.887 27.306C554.13 27.306 554.335 27.376 554.503 27.516C554.681 27.656 554.769 27.8987 554.769 28.244C554.769 28.58 554.681 28.8227 554.503 28.972C554.335 29.1213 554.13 29.196 553.887 29.196C553.654 29.196 553.453 29.1213 553.285 28.972C553.117 28.8227 553.033 28.58 553.033 28.244ZM553.033 22.252C553.033 21.8973 553.117 21.65 553.285 21.51C553.453 21.37 553.654 21.3 553.887 21.3C554.13 21.3 554.335 21.37 554.503 21.51C554.681 21.65 554.769 21.8973 554.769 22.252C554.769 22.588 554.681 22.8307 554.503 22.98C554.335 23.1293 554.13 23.204 553.887 23.204C553.654 23.204 553.453 23.1293 553.285 22.98C553.117 22.8307 553.033 22.588 553.033 22.252ZM563.051 29H556.443V27.978L559.061 25.332C559.565 24.828 559.99 24.38 560.335 23.988C560.681 23.596 560.942 23.2133 561.119 22.84C561.297 22.4573 561.385 22.042 561.385 21.594C561.385 21.0433 561.222 20.628 560.895 20.348C560.569 20.0587 560.144 19.914 559.621 19.914C559.136 19.914 558.707 19.998 558.333 20.166C557.969 20.334 557.596 20.5673 557.213 20.866L556.555 20.04C556.817 19.816 557.101 19.6153 557.409 19.438C557.727 19.2607 558.067 19.1207 558.431 19.018C558.805 18.9153 559.201 18.864 559.621 18.864C560.247 18.864 560.783 18.9713 561.231 19.186C561.679 19.4007 562.025 19.7087 562.267 20.11C562.519 20.502 562.645 20.9733 562.645 21.524C562.645 21.916 562.585 22.2893 562.463 22.644C562.342 22.9893 562.169 23.33 561.945 23.666C561.721 24.002 561.451 24.3427 561.133 24.688C560.816 25.0333 560.466 25.3927 560.083 25.766L557.997 27.824V27.88H563.051V29ZM571.511 26.732H570.055V29H568.865V26.732H564.077V25.682L568.781 18.948H570.055V25.626H571.511V26.732ZM568.865 22.476C568.865 22.2333 568.865 22.014 568.865 21.818C568.875 21.6127 568.884 21.4213 568.893 21.244C568.903 21.0667 568.907 20.8987 568.907 20.74C568.917 20.572 568.926 20.4133 568.935 20.264H568.879C568.805 20.4413 568.711 20.6327 568.599 20.838C568.487 21.0433 568.38 21.216 568.277 21.356L565.281 25.626H568.865V22.476Z" fill="white"/>
<path d="M605 21H595C594.45 21 594 21.45 594 22C594 22.55 594.45 23 595 23H605C605.55 23 606 22.55 606 22C606 21.45 605.55 21 605 21ZM605 17H595C594.45 17 594 17.45 594 18C594 18.55 594.45 19 595 19H605C605.55 19 606 18.55 606 18C606 17.45 605.55 17 605 17ZM610 25V22C610 21.45 609.55 21 609 21C608.45 21 608 21.45 608 22V25H605C604.45 25 604 25.45 604 26C604 26.55 604.45 27 605 27H608V30C608 30.55 608.45 31 609 31C609.55 31 610 30.55 610 30V27H613C613.55 27 614 26.55 614 26C614 25.45 613.55 25 613 25H610ZM595 27H601C601.55 27 602 26.55 602 26C602 25.45 601.55 25 601 25H595C594.45 25 594 25.45 594 26C594 26.55 594.45 27 595 27Z" fill="white"/>
<path d="M635.305 33.75C636.405 33.75 637.305 32.85 637.305 31.75H633.305C633.305 32.85 634.195 33.75 635.305 33.75ZM641.305 22.75C641.305 19.68 639.665 17.11 636.805 16.43V15.75C636.805 14.92 636.135 14.25 635.305 14.25C634.475 14.25 633.805 14.92 633.805 15.75V16.43C633.565 16.49 633.335 16.58 633.115 16.66L641.305 24.85V22.75ZM628.715 15.1L627.305 16.51L630.115 19.32C629.595 20.32 629.305 21.48 629.305 22.75V27.75L628.015 29.04C627.385 29.67 627.825 30.75 628.715 30.75H641.545L643.285 32.49L644.695 31.08L628.715 15.1Z" fill="#F5F5F5"/>
<path d="M665.25 34L664.85 30.8C664.633 30.7167 664.429 30.6167 664.237 30.5C664.046 30.3833 663.858 30.2583 663.675 30.125L660.7 31.375L657.95 26.625L660.525 24.675C660.508 24.5583 660.5 24.4458 660.5 24.3375V23.6625C660.5 23.5542 660.508 23.4417 660.525 23.325L657.95 21.375L660.7 16.625L663.675 17.875C663.858 17.7417 664.05 17.6167 664.25 17.5C664.45 17.3833 664.65 17.2833 664.85 17.2L665.25 14H670.75L671.15 17.2C671.367 17.2833 671.571 17.3833 671.762 17.5C671.954 17.6167 672.142 17.7417 672.325 17.875L675.3 16.625L678.05 21.375L675.475 23.325C675.492 23.4417 675.5 23.5542 675.5 23.6625V24.3375C675.5 24.4458 675.483 24.5583 675.45 24.675L678.025 26.625L675.275 31.375L672.325 30.125C672.142 30.2583 671.95 30.3833 671.75 30.5C671.55 30.6167 671.35 30.7167 671.15 30.8L670.75 34H665.25ZM668.05 27.5C669.017 27.5 669.842 27.1583 670.525 26.475C671.208 25.7917 671.55 24.9667 671.55 24C671.55 23.0333 671.208 22.2083 670.525 21.525C669.842 20.8417 669.017 20.5 668.05 20.5C667.067 20.5 666.237 20.8417 665.562 21.525C664.887 22.2083 664.55 23.0333 664.55 24C664.55 24.9667 664.887 25.7917 665.562 26.475C666.237 27.1583 667.067 27.5 668.05 27.5Z" fill="#F5F5F5"/>
<defs>
<filter id="filter0_d_16970_8466" x="261" y="20" width="16" height="16" filterUnits="userSpaceOnUse" color-interpolation-filters="sRGB">
<feFlood flood-opacity="0" result="BackgroundImageFix"/>
<feColorMatrix in="SourceAlpha" type="matrix" values="0 0 0 0 0 0 0 0 0 0 0 0 0 0 0 0 0 0 127 0" result="hardAlpha"/>
<feOffset dy="4"/>
<feGaussianBlur stdDeviation="2"/>
<feComposite in2="hardAlpha" operator="out"/>
<feColorMatrix type="matrix" values="0 0 0 0 0 0 0 0 0 0 0 0 0 0 0 0 0 0 0.25 0"/>
<feBlend mode="normal" in2="BackgroundImageFix" result="effect1_dropShadow_16970_8466"/>
<feBlend mode="normal" in="SourceGraphic" in2="effect1_dropShadow_16970_8466" result="shape"/>
</filter>
</defs>
</svg>
