<svg width="386" height="97" viewBox="0 0 386 97" fill="none" xmlns="http://www.w3.org/2000/svg">
<circle cx="33" cy="48.5" r="32" fill="#121212" fill-opacity="0.4"/>
<circle cx="33" cy="48.5" r="32.5" stroke="#F5F5F5" stroke-opacity="0.4"/>
<path d="M30 54.5V44.5L28 46.375" stroke="#F5F5F5" stroke-width="1.5" stroke-linecap="round" stroke-linejoin="round"/>
<path d="M34 53.8752C34.5223 54.2675 35.1715 54.5 35.875 54.5C37.6009 54.5 39 53.1009 39 51.375C39 49.6491 37.6009 48.25 35.875 48.25C35.1715 48.25 34.5223 48.4825 34 48.8748L34.625 44.5H39" stroke="#F5F5F5" stroke-width="1.5" stroke-linecap="round" stroke-linejoin="round"/>
<path d="M23.4521 38.9203C17.7973 44.1588 17.4879 52.9595 22.7611 58.5771C28.0343 64.1948 36.8931 64.5021 42.5479 59.2636C48.2027 54.025 48.5121 45.2244 43.2389 39.6067C40.2395 36.4114 36.08 34.9341 32.0099 35.2183M34 32L30.4342 35.3777L34 39" stroke="#F5F5F5" stroke-width="2.5" stroke-linecap="round" stroke-linejoin="round"/>
<path d="M145 48.5C145 21.9903 166.49 0.5 193 0.5C219.51 0.5 241 21.9903 241 48.5C241 75.0097 219.51 96.5 193 96.5C166.49 96.5 145 75.0097 145 48.5Z" fill="#121212" fill-opacity="0.4"/>
<path d="M193 1C219.234 1 240.5 22.2665 240.5 48.5C240.5 74.7335 219.234 96 193 96C166.766 96 145.5 74.7335 145.5 48.5C145.5 22.2665 166.766 1 193 1Z" stroke="#F5F5F5" stroke-opacity="0.4"/>
<path d="M181 69.5C184.3 69.5 187 66.8 187 63.5V33.5C187 30.2 184.3 27.5 181 27.5C177.7 27.5 175 30.2 175 33.5V63.5C175 66.8 177.7 69.5 181 69.5ZM199 33.5V63.5C199 66.8 201.7 69.5 205 69.5C208.3 69.5 211 66.8 211 63.5V33.5C211 30.2 208.3 27.5 205 27.5C201.7 27.5 199 30.2 199 33.5Z" fill="#F5F5F5"/>
<circle cx="353" cy="48.5" r="32" fill="#121212" fill-opacity="0.4"/>
<circle cx="353" cy="48.5" r="32.5" stroke="#F5F5F5" stroke-opacity="0.4"/>
<path d="M350 54.5V44.5L348 46.375" stroke="#F5F5F5" stroke-width="1.5" stroke-linecap="round" stroke-linejoin="round"/>
<path d="M354 53.8752C354.522 54.2675 355.171 54.5 355.875 54.5C357.601 54.5 359 53.1009 359 51.375C359 49.6491 357.601 48.25 355.875 48.25C355.171 48.25 354.522 48.4825 354 48.8748L354.625 44.5H359" stroke="#F5F5F5" stroke-width="1.5" stroke-linecap="round" stroke-linejoin="round"/>
<path d="M362.548 38.9203C368.203 44.1588 368.512 52.9595 363.239 58.5771C357.966 64.1948 349.107 64.5021 343.452 59.2636C337.797 54.025 337.488 45.2244 342.761 39.6067C345.76 36.4114 349.92 34.9341 353.99 35.2183M352 32L355.566 35.3777L352 39" stroke="#F5F5F5" stroke-width="2.5" stroke-linecap="round" stroke-linejoin="round"/>
</svg>
